<svg viewBox="0 0 700 420" xmlns="http://www.w3.org/2000/svg" font-family="Arial, Helvetica, sans-serif">
  <rect width="700" height="420" fill="#F7F4EE"/>
  <rect x="0" y="0" width="700" height="40" fill="#0B1F2A"/>
  <circle cx="24" cy="20" r="6" fill="#E8B23D"/>
  <circle cx="46" cy="20" r="6" fill="#1F9D77"/>
  <circle cx="68" cy="20" r="6" fill="#9FB8B0"/>

  <text x="50" y="90" font-size="22" font-weight="700" fill="#0B1F2A">Dashboard</text>

  <rect x="50" y="120" width="280" height="130" rx="12" fill="#FFFFFF" stroke="#0B1F2A" stroke-width="1.5"/>
  <text x="72" y="152" font-size="13" fill="#8A8272">WALLET</text>
  <text x="72" y="150" font-size="0"></text>
  <text x="72" y="150"></text>
  <text x="72" y="190" font-size="26" font-weight="700" fill="#0B1F2A">₦12,500.00</text>
  <text x="72" y="215" font-size="12" fill="#8A8272">Available credit balance</text>

  <rect x="360" y="120" width="280" height="130" rx="12" fill="#FFFFFF" stroke="#0B1F2A" stroke-width="1.5"/>
  <text x="382" y="152" font-size="13" fill="#8A8272">PLAN</text>
  <text x="382" y="190" font-size="20" font-weight="700" fill="#0B1F2A">Pro</text>
  <rect x="382" y="205" width="60" height="20" rx="10" fill="#1F9D77"/>
  <text x="412" y="219" text-anchor="middle" font-size="10.5" fill="#0B1F2A" font-weight="700">ACTIVE</text>

  <rect x="50" y="270" width="590" height="120" rx="12" fill="#FFFFFF" stroke="#0B1F2A" stroke-width="1.5"/>
  <text x="72" y="300" font-size="13" font-weight="700" fill="#0B1F2A">Recent activity</text>
  <line x1="72" y1="315" x2="618" y2="315" stroke="#EDEAE1"/>
  <text x="72" y="335" font-size="12" fill="#3A4A46">Wallet top-up · ₦5,000</text>
  <text x="560" y="335" font-size="12" fill="#1F9D77">Success</text>
  <line x1="72" y1="345" x2="618" y2="345" stroke="#EDEAE1"/>
  <text x="72" y="365" font-size="12" fill="#3A4A46">AI generation · claude</text>
  <text x="560" y="365" font-size="12" fill="#1F9D77">Success</text>

  <text x="350" y="410" text-anchor="middle" font-size="11" fill="#8A8272">Illustrative UI mockup — not a live screenshot</text>
</svg>
